<svg viewBox="0 0 128 128" fill="none" xmlns="http://www.w3.org/2000/svg">
<g id="alert-falling-rocks">
<g id="Danger Zone">
<g transform="translate(64.0,63.0)"><path id="Exclamation" d="M59.2061 39.5488C61.3084 35.8094 66.6916 35.8094 68.7939 39.5488L90.5811 78.3047C92.6421 81.9709 89.9929 86.4999 85.7871 86.5H42.2129C38.0071 86.4999 35.3579 81.9709 37.4189 78.3047L59.2061 39.5488Z" fill="url(#paint0_linear_1950_4313)" stroke="#DC2626" transform="translate(-64.0,-63.0)"/><animateTransform attributeName="transform" type="scale" values="1 1;1.1 1.1;1 1" dur="3s" begin="0s" repeatCount="indefinite" calcMode="spline" keySplines=".42 0 .58 1; .42 0 .58 1" additive="sum"/></g>
<g transform="translate(64.3,62.3)"><g id="Mask group" transform="translate(-64.3,-62.3)">
<mask id="mask0_1950_4313" style="mask-type:alpha" maskUnits="userSpaceOnUse" x="42" y="42" width="44" height="40">
<path id="Clip" d="M62.2512 43.03C63.0143 41.6567 64.9857 41.6567 65.7488 43.03L85.7444 79.0188C86.4871 80.3557 85.5225 82 83.9956 82H44.0044C42.4775 82 41.5129 80.3556 42.2556 79.0188L62.2512 43.03Z" fill="black"/>
</mask>
<g mask="url(#mask0_1950_4313)">
<g id="Inner">
<rect id="Background" x="42" y="42" width="44" height="40" fill="url(#paint1_linear_1950_4313)"/>
<path id="Hill" d="M86.5 82.5H50.5361L86.5 67.7451V82.5Z" fill="url(#paint2_linear_1950_4313)" stroke="#16A34A" stroke-miterlimit="10" stroke-linecap="round"/>
<rect id="Cube" x="55.683" y="69.683" width="8" height="8" rx="1.5" transform="rotate(-30 55.683 69.683)" fill="url(#paint3_linear_1950_4313)" stroke="#A8A29E"/>
<circle id="Debris 1" cx="52.5" cy="77.5" r="1.5" fill="#D6D3D1"><animateTransform attributeName="transform" type="translate" values="0 0;8 -4" dur="3s" begin="0s" repeatCount="indefinite" calcMode="spline" keySplines=".42 0 .58 1"/><animate attributeName="opacity" values="0;1;1;0" dur="3s" begin="0s" repeatCount="indefinite" keyTimes="0;0.2;0.8;1"/></circle>
<circle id="Debris 2" cx="73.5" cy="70.5" r="1.5" fill="#D6D3D1" opacity="0"><animateTransform attributeName="transform" type="translate" values="0 0;8 -4" dur="3s" begin="0.3s" repeatCount="indefinite" calcMode="spline" keySplines=".42 0 .58 1"/><animate attributeName="opacity" values="0;1;1;0" dur="3s" begin="0.3s" repeatCount="indefinite" keyTimes="0;0.2;0.8;1"/></circle>
<rect id="Debris 3" x="69.6544" y="65.2622" width="6" height="3" rx="1" transform="rotate(-22.5 69.6544 65.2622)" fill="#D6D3D1" opacity="0"><animateTransform attributeName="transform" type="translate" values="0 0;8 -4" dur="3s" begin="0.6s" repeatCount="indefinite" calcMode="spline" keySplines=".42 0 .58 1"/><animate attributeName="opacity" values="0;1;1;0" dur="3s" begin="0.6s" repeatCount="indefinite" keyTimes="0;0.2;0.8;1"/></rect>
</g>
</g>
</g><animateTransform attributeName="transform" type="scale" values="1 1;1.1 1.1;1 1" dur="3s" begin="0s" repeatCount="indefinite" calcMode="spline" keySplines=".42 0 .58 1; .42 0 .58 1" additive="sum"/></g>
</g>
</g>
<defs>
<linearGradient id="paint0_linear_1950_4313" x1="64" y1="36.5" x2="64" y2="86.5" gradientUnits="userSpaceOnUse">
<stop stop-color="#EF4444"/>
<stop offset="1" stop-color="#DC2626"/>
</linearGradient>
<linearGradient id="paint1_linear_1950_4313" x1="64" y1="42" x2="64" y2="82" gradientUnits="userSpaceOnUse">
<stop stop-color="#F3F7FE"/>
<stop offset="1" stop-color="#E6EFFC"/>
</linearGradient>
<linearGradient id="paint2_linear_1950_4313" x1="67.5" y1="67" x2="67.5" y2="83" gradientUnits="userSpaceOnUse">
<stop stop-color="#22C55E"/>
<stop offset="1" stop-color="#16A34A"/>
</linearGradient>
<linearGradient id="paint3_linear_1950_4313" x1="59.5" y1="69.5" x2="59.5" y2="78.5" gradientUnits="userSpaceOnUse">
<stop stop-color="#D6D3D1"/>
<stop offset="1" stop-color="#A8A29E"/>
</linearGradient>
</defs>
</svg>