<svg viewBox="0 0 128 128" fill="none" xmlns="http://www.w3.org/2000/svg">
<g id="pollen-tree" clip-path="url(#clip0_2038_4188)">
<g id="Tree">
<rect id="Branch" x="52.683" y="74.683" width="2" height="14" transform="rotate(-30 52.683 74.683)" fill="url(#paint0_linear_2038_4188)" stroke="#654427" stroke-linecap="round" stroke-linejoin="round"/>
<path id="Trunk" d="M63.002 65.5H64.252C64.9043 65.4998 65.531 65.7546 65.998 66.21C66.4651 66.6654 66.7356 67.2854 66.752 67.9375V67.9404L67.0557 77.5801C67.0627 77.8033 67.2169 77.9954 67.4336 78.0498C67.6502 78.1041 67.8766 78.0079 67.9883 77.8145L72.4326 70.1162C72.5707 69.8771 72.8771 69.7946 73.1162 69.9326L73.9824 70.4326C74.2215 70.5707 74.3031 70.8771 74.165 71.1162L67.4443 82.7578C67.3047 82.9997 67.2353 83.2755 67.2441 83.5547L67.752 99.6787C67.7534 99.7246 67.7617 99.7685 67.7744 99.8105C67.7702 100.106 67.7176 100.398 67.6113 100.674C67.4907 100.987 67.3084 101.273 67.0752 101.514C66.8419 101.755 66.5618 101.946 66.2529 102.077C65.9443 102.208 65.6125 102.276 65.2773 102.275H62.001C61.6658 102.276 61.334 102.208 61.0254 102.077C60.7165 101.946 60.4364 101.755 60.2031 101.514C59.9699 101.273 59.7876 100.987 59.667 100.674C59.5464 100.361 59.4898 100.027 59.501 99.6914V99.6904L60.501 67.9404L60.502 67.9375C60.5183 67.2854 60.7888 66.6654 61.2559 66.21C61.7229 65.7547 62.3497 65.4998 63.002 65.5ZM68.248 100.173C68.2198 100.172 68.192 100.171 68.165 100.165C68.192 100.17 68.2197 100.172 68.248 100.173Z" fill="url(#paint1_linear_2038_4188)" stroke="#654427" stroke-linecap="round" stroke-linejoin="round"/>
<circle id="Branch Canopy" cx="52" cy="72" r="8.5" fill="url(#paint2_linear_2038_4188)" stroke="#16A34A" stroke-miterlimit="10" stroke-linecap="round"/>
<circle id="Main Canopy" cx="64" cy="54" r="19.5" fill="url(#paint3_linear_2038_4188)" stroke="#16A34A" stroke-miterlimit="10" stroke-linecap="round"/>
<circle id="Side Canopy" cx="76" cy="65" r="11.5" fill="url(#paint4_linear_2038_4188)" stroke="#16A34A" stroke-miterlimit="10" stroke-linecap="round"/>
</g>
<g id="Pollen">
<path id="Pollen 7" d="M90 47.5C91.3807 47.5 92.5 48.6193 92.5 50C92.5 51.3807 91.3807 52.5 90 52.5C88.6193 52.5 87.5 51.3807 87.5 50C87.5 48.6193 88.6193 47.5 90 47.5Z" fill="url(#paint5_linear_2038_4188)" stroke="#FACC15"><animateTransform attributeName="transform" type="translate" values="0 0;8 -4" dur="3s" begin="0s" repeatCount="indefinite" calcMode="spline" keySplines=".42 0 .58 1"/><animate attributeName="opacity" values="0;1;1;0" dur="3s" begin="0s" repeatCount="indefinite" keyTimes="0;0.2;0.8;1"/></path>
<path id="Pollen 6" d="M80 38.5C80.8284 38.5 81.5 39.1716 81.5 40C81.5 40.8284 80.8284 41.5 80 41.5C79.1716 41.5 78.5 40.8284 78.5 40C78.5 39.1716 79.1716 38.5 80 38.5Z" fill="url(#paint6_linear_2038_4188)" stroke="#FACC15" opacity="0"><animateTransform attributeName="transform" type="translate" values="0 0;8 -4" dur="3s" begin="0.35s" repeatCount="indefinite" calcMode="spline" keySplines=".42 0 .58 1"/><animate attributeName="opacity" values="0;1;1;0" dur="3s" begin="0.35s" repeatCount="indefinite" keyTimes="0;0.2;0.8;1"/></path>
<path id="Pollen 5" d="M74 44.5C75.933 44.5 77.5 46.067 77.5 48C77.5 49.933 75.933 51.5 74 51.5C72.067 51.5 70.5 49.933 70.5 48C70.5 46.067 72.067 44.5 74 44.5Z" fill="url(#paint7_linear_2038_4188)" stroke="#FACC15" opacity="0"><animateTransform attributeName="transform" type="translate" values="0 0;8 -4" dur="3s" begin="0.7s" repeatCount="indefinite" calcMode="spline" keySplines=".42 0 .58 1"/><animate attributeName="opacity" values="0;1;1;0" dur="3s" begin="0.7s" repeatCount="indefinite" keyTimes="0;0.2;0.8;1"/></path>
<path id="Pollen 4" d="M64 35.5C65.3807 35.5 66.5 36.6193 66.5 38C66.5 39.3807 65.3807 40.5 64 40.5C62.6193 40.5 61.5 39.3807 61.5 38C61.5 36.6193 62.6193 35.5 64 35.5Z" fill="url(#paint8_linear_2038_4188)" stroke="#FACC15" opacity="0"><animateTransform attributeName="transform" type="translate" values="0 0;8 -4" dur="3s" begin="1.0499999999999998s" repeatCount="indefinite" calcMode="spline" keySplines=".42 0 .58 1"/><animate attributeName="opacity" values="0;1;1;0" dur="3s" begin="1.0499999999999998s" repeatCount="indefinite" keyTimes="0;0.2;0.8;1"/></path>
<path id="Pollen 3" d="M54 44.5C55.933 44.5 57.5 46.067 57.5 48C57.5 49.933 55.933 51.5 54 51.5C52.067 51.5 50.5 49.933 50.5 48C50.5 46.067 52.067 44.5 54 44.5Z" fill="url(#paint9_linear_2038_4188)" stroke="#FACC15" opacity="0"><animateTransform attributeName="transform" type="translate" values="0 0;8 -4" dur="3s" begin="1.4s" repeatCount="indefinite" calcMode="spline" keySplines=".42 0 .58 1"/><animate attributeName="opacity" values="0;1;1;0" dur="3s" begin="1.4s" repeatCount="indefinite" keyTimes="0;0.2;0.8;1"/></path>
<path id="Pollen 2" d="M48 38.5C48.8284 38.5 49.5 39.1716 49.5 40C49.5 40.8284 48.8284 41.5 48 41.5C47.1716 41.5 46.5 40.8284 46.5 40C46.5 39.1716 47.1716 38.5 48 38.5Z" fill="url(#paint10_linear_2038_4188)" stroke="#FACC15" opacity="0"><animateTransform attributeName="transform" type="translate" values="0 0;8 -4" dur="3s" begin="1.75s" repeatCount="indefinite" calcMode="spline" keySplines=".42 0 .58 1"/><animate attributeName="opacity" values="0;1;1;0" dur="3s" begin="1.75s" repeatCount="indefinite" keyTimes="0;0.2;0.8;1"/></path>
<path id="Pollen 1" d="M38 47.5C39.3807 47.5 40.5 48.6193 40.5 50C40.5 51.3807 39.3807 52.5 38 52.5C36.6193 52.5 35.5 51.3807 35.5 50C35.5 48.6193 36.6193 47.5 38 47.5Z" fill="url(#paint11_linear_2038_4188)" stroke="#FACC15" opacity="0"><animateTransform attributeName="transform" type="translate" values="0 0;8 -4" dur="3s" begin="2.0999999999999996s" repeatCount="indefinite" calcMode="spline" keySplines=".42 0 .58 1"/><animate attributeName="opacity" values="0;1;1;0" dur="3s" begin="2.0999999999999996s" repeatCount="indefinite" keyTimes="0;0.2;0.8;1"/></path>
</g>
</g>
<defs>
<linearGradient id="paint0_linear_2038_4188" x1="53.6172" y1="74.4106" x2="53.6172" y2="89.5" gradientUnits="userSpaceOnUse">
<stop stop-color="#875B34"/>
<stop offset="1" stop-color="#654427"/>
</linearGradient>
<linearGradient id="paint1_linear_2038_4188" x1="67.678" y1="64.7749" x2="67.678" y2="102.775" gradientUnits="userSpaceOnUse">
<stop stop-color="#875B34"/>
<stop offset="1" stop-color="#654427"/>
</linearGradient>
<linearGradient id="paint2_linear_2038_4188" x1="52" y1="63" x2="52" y2="81" gradientUnits="userSpaceOnUse">
<stop stop-color="#22C55E"/>
<stop offset="1" stop-color="#16A34A"/>
</linearGradient>
<linearGradient id="paint3_linear_2038_4188" x1="64" y1="34" x2="64" y2="74" gradientUnits="userSpaceOnUse">
<stop stop-color="#22C55E"/>
<stop offset="1" stop-color="#16A34A"/>
</linearGradient>
<linearGradient id="paint4_linear_2038_4188" x1="76" y1="53" x2="76" y2="77" gradientUnits="userSpaceOnUse">
<stop stop-color="#22C55E"/>
<stop offset="1" stop-color="#16A34A"/>
</linearGradient>
<linearGradient id="paint5_linear_2038_4188" x1="90" y1="47.5132" x2="90" y2="51.4605" gradientUnits="userSpaceOnUse">
<stop stop-color="#FDE047"/>
<stop offset="1" stop-color="#FACC15"/>
</linearGradient>
<linearGradient id="paint6_linear_2038_4188" x1="80" y1="38.3421" x2="80" y2="40.9737" gradientUnits="userSpaceOnUse">
<stop stop-color="#FDE047"/>
<stop offset="1" stop-color="#FACC15"/>
</linearGradient>
<linearGradient id="paint7_linear_2038_4188" x1="74" y1="44.6842" x2="74" y2="49.9474" gradientUnits="userSpaceOnUse">
<stop stop-color="#FDE047"/>
<stop offset="1" stop-color="#FACC15"/>
</linearGradient>
<linearGradient id="paint8_linear_2038_4188" x1="64" y1="35.5132" x2="64" y2="39.4605" gradientUnits="userSpaceOnUse">
<stop stop-color="#FDE047"/>
<stop offset="1" stop-color="#FACC15"/>
</linearGradient>
<linearGradient id="paint9_linear_2038_4188" x1="54" y1="44.6842" x2="54" y2="49.9474" gradientUnits="userSpaceOnUse">
<stop stop-color="#FDE047"/>
<stop offset="1" stop-color="#FACC15"/>
</linearGradient>
<linearGradient id="paint10_linear_2038_4188" x1="48" y1="38.3421" x2="48" y2="40.9737" gradientUnits="userSpaceOnUse">
<stop stop-color="#FDE047"/>
<stop offset="1" stop-color="#FACC15"/>
</linearGradient>
<linearGradient id="paint11_linear_2038_4188" x1="38" y1="47.5132" x2="38" y2="51.4605" gradientUnits="userSpaceOnUse">
<stop stop-color="#FDE047"/>
<stop offset="1" stop-color="#FACC15"/>
</linearGradient>
<clipPath id="clip0_2038_4188">
<rect width="128" height="128" fill="white"/>
</clipPath>
</defs>
</svg>