<svg viewBox="0 0 128 128" fill="none" xmlns="http://www.w3.org/2000/svg">
<g id="alert-avalanche-danger">
<g id="Danger Zone">
<g transform="translate(64.0,63.2)"><path id="Exclamation" d="M58.7698 39.3039C61.0632 35.2241 66.9368 35.2241 69.2302 39.3038L91.0171 78.0598C93.2655 82.0594 90.3752 87 85.7869 87H42.2131C37.6248 87 34.7345 82.0594 36.9829 78.0598L58.7698 39.3039Z" fill="#DC2626" transform="translate(-64.0,-63.2)"/><animateTransform attributeName="transform" type="scale" values="1 1;1.1 1.1;1 1" dur="3s" begin="0s" repeatCount="indefinite" calcMode="spline" keySplines=".42 0 .58 1; .42 0 .58 1" additive="sum"/></g>
<g transform="translate(63.5,62.5)"><g id="Mask group" transform="translate(-63.5,-62.5)">
<mask id="mask0_2045_48121" style="mask-type:alpha" maskUnits="userSpaceOnUse" x="42" y="42" width="44" height="40">
<path id="Clip" d="M62.2512 43.03C63.0143 41.6567 64.9857 41.6567 65.7488 43.03L85.7444 79.0188C86.4871 80.3557 85.5225 82 83.9956 82H44.0044C42.4775 82 41.5129 80.3556 42.2556 79.0188L62.2512 43.03Z" fill="black"/>
</mask>
<g mask="url(#mask0_2045_48121)">
<g id="Inner">
<rect id="Background" x="41" y="42" width="44" height="40" fill="url(#paint0_linear_2045_48121)"/>
<path id="Hill" d="M47 83L86 67V83H47Z" fill="white"/>
<rect id="Cube" x="54" y="69.5" width="9" height="9" rx="2" transform="rotate(-30 54 69.5)" fill="white"/>
<circle id="Debris 1" cx="51.5" cy="77.5" r="1.5" fill="white"><animateTransform attributeName="transform" type="translate" values="0 0;8 -4" dur="3s" begin="0s" repeatCount="indefinite" calcMode="spline" keySplines=".42 0 .58 1"/><animate attributeName="opacity" values="0;1;1;0" dur="3s" begin="0s" repeatCount="indefinite" keyTimes="0;0.2;0.8;1"/></circle>
<circle id="Debris 2" cx="72.5" cy="70.5" r="1.5" fill="white" opacity="0"><animateTransform attributeName="transform" type="translate" values="0 0;8 -4" dur="3s" begin="0.3s" repeatCount="indefinite" calcMode="spline" keySplines=".42 0 .58 1"/><animate attributeName="opacity" values="0;1;1;0" dur="3s" begin="0.3s" repeatCount="indefinite" keyTimes="0;0.2;0.8;1"/></circle>
<rect id="Debris 3" x="68.6543" y="65.2622" width="6" height="3" rx="1" transform="rotate(-22.5 68.6543 65.2622)" fill="white" opacity="0"><animateTransform attributeName="transform" type="translate" values="0 0;8 -4" dur="3s" begin="0.6s" repeatCount="indefinite" calcMode="spline" keySplines=".42 0 .58 1"/><animate attributeName="opacity" values="0;1;1;0" dur="3s" begin="0.6s" repeatCount="indefinite" keyTimes="0;0.2;0.8;1"/></rect>
</g>
</g>
</g><animateTransform attributeName="transform" type="scale" values="1 1;1.1 1.1;1 1" dur="3s" begin="0s" repeatCount="indefinite" calcMode="spline" keySplines=".42 0 .58 1; .42 0 .58 1" additive="sum"/></g>
</g>
</g>
<defs>
<linearGradient id="paint0_linear_2045_48121" x1="63" y1="39.8825" x2="63" y2="96.0391" gradientUnits="userSpaceOnUse">
<stop stop-color="#86C3DB"/>
<stop offset="1" stop-color="#72B9D5"/>
</linearGradient>
</defs>
</svg>