<svg viewBox="0 0 128 128" fill="none" xmlns="http://www.w3.org/2000/svg">
<g id="smoke-particles">
<g id="Smoke">
<path id="Smoke 1" d="M62.5 85C64.9853 85 67 82.9853 67 80.5C67 78.0147 64.9853 76 62.5 76C60.0147 76 58 78.0147 58 80.5C58 82.9853 60.0147 85 62.5 85Z" fill="#94A3B8" opacity="0"><animateTransform attributeName="transform" type="translate" values="0 0;8 -4" dur="3s" begin="0.1s" repeatCount="indefinite" calcMode="spline" keySplines=".42 0 .58 1"/><animate attributeName="opacity" values="0;1;1;0" dur="3s" begin="0.1s" repeatCount="indefinite" keyTimes="0;0.2;0.8;1"/></path>
<path id="Smoke 2" d="M53.5 76C57.6421 76 61 72.6421 61 68.5C61 64.3579 57.6421 61 53.5 61C49.3579 61 46 64.3579 46 68.5C46 72.6421 49.3579 76 53.5 76Z" fill="#94A3B8" opacity="0"><animateTransform attributeName="transform" type="translate" values="0 0;8 -4" dur="3s" begin="0.5s" repeatCount="indefinite" calcMode="spline" keySplines=".42 0 .58 1"/><animate attributeName="opacity" values="0;1;1;0" dur="3s" begin="0.5s" repeatCount="indefinite" keyTimes="0;0.2;0.8;1"/></path>
<path id="Smoke 3" d="M71.5 64C77.299 64 82 59.299 82 53.5C82 47.701 77.299 43 71.5 43C65.701 43 61 47.701 61 53.5C61 59.299 65.701 64 71.5 64Z" fill="#94A3B8" opacity="0"><animateTransform attributeName="transform" type="translate" values="0 0;8 -4" dur="3s" begin="0.9s" repeatCount="indefinite" calcMode="spline" keySplines=".42 0 .58 1"/><animate attributeName="opacity" values="0;1;1;0" dur="3s" begin="0.9s" repeatCount="indefinite" keyTimes="0;0.2;0.8;1"/></path>
</g>
</g>
</svg>