<svg viewBox="0 0 128 128" fill="none" xmlns="http://www.w3.org/2000/svg">
<g id="hurricane">
<path id="Line" d="M50.0344 29.6487L49.0764 31.5499C43.587 42.4455 41.2238 54.6192 42.2435 66.7486M77.9923 98.352L78.9503 96.4508C84.4398 85.5552 86.803 73.3815 85.7832 61.2521M86.0011 64.0001C86.0011 68.2974 84.7116 72.4981 82.2955 76.0712C79.8795 79.6442 76.4454 82.429 72.4277 84.0735C68.4099 85.718 63.989 86.1483 59.7238 85.3099C55.4586 84.4716 51.5407 82.4023 48.4657 79.3636C45.3907 76.325 43.2965 72.4536 42.4481 68.2389C41.5997 64.0242 42.0351 59.6556 43.6993 55.6854C45.3635 51.7153 48.1818 48.3219 51.7976 45.9345C55.4135 43.5471 59.6646 42.2728 64.0134 42.2728C69.8449 42.2728 75.4375 44.5619 79.561 48.6366C83.6845 52.7112 86.0011 58.2377 86.0011 64.0001Z" stroke="#D6DFE9" stroke-width="4" stroke-miterlimit="10" stroke-linecap="round"><animateTransform attributeName="transform" type="rotate" values="0 64.1 64.0;-360 64.1 64.0" dur="3s" begin="0s" repeatCount="indefinite"/></path>
</g>
</svg>