<svg viewBox="0 0 128 128" fill="none" xmlns="http://www.w3.org/2000/svg">
<g id="wind-offshore" clip-path="url(#clip0_2049_7106)">
<g id="Shore">
<g id="Tree">
<rect id="Branch" x="76" y="58.25" width="1.5" height="7.5" transform="rotate(-30 76 58.25)" fill="#654427"/>
<path id="Trunk" d="M86 55.933C86.1381 55.6939 86.4439 55.6119 86.683 55.75L87.116 56C87.3552 56.1381 87.4371 56.4439 87.299 56.683L83.9385 62.5037C83.8919 62.5843 83.8688 62.6764 83.8717 62.7694L84.1256 70.8312C84.1257 70.8347 84.1286 70.8375 84.1321 70.8375C84.1356 70.8375 84.1384 70.8403 84.1385 70.8437C84.1443 71.0428 84.1105 71.241 84.0388 71.4269C83.9665 71.6147 83.857 71.786 83.7171 71.9306C83.5771 72.0753 83.4095 72.1902 83.2241 72.2687C83.0388 72.3472 82.8396 72.3876 82.6383 72.3875H81.0008C80.7996 72.3876 80.6003 72.3472 80.415 72.2687C80.2297 72.1902 80.0621 72.0753 79.9221 71.9306C79.7821 71.786 79.6727 71.6147 79.6003 71.4269C79.528 71.2391 79.4941 71.0387 79.5008 70.8375L80.0008 54.9625C80.0106 54.5712 80.173 54.1992 80.4532 53.926C80.7335 53.6528 81.1094 53.4999 81.5008 53.5H82.1258C82.5172 53.4999 82.8932 53.6528 83.1735 53.926C83.4537 54.1992 83.616 54.5712 83.6258 54.9625L83.7776 59.7823L86 55.933Z" fill="#875B34"/>
<circle id="Branch Canopy" cx="76" cy="57" r="4.5" fill="#16A34A"/>
<circle id="Main Canopy" cx="82" cy="48" r="10" fill="#22C55E"/>
<circle id="Side Canopy" cx="88" cy="53.5" r="6" fill="#16A34A"/>
</g>
<g transform="translate(64.0,98.0)"><g id="Water" transform="translate(-64.0,-98.0)">
<path id="Water_2" d="M34 78.5C34 77.5557 34.4446 76.6666 35.2 76.1L40.0748 72.4439C41.1997 71.6003 42.7596 71.6511 43.8272 72.5661L47.0476 75.3265C48.1711 76.2895 49.8289 76.2895 50.9524 75.3265L54.1728 72.5661C55.2404 71.6511 56.8003 71.6003 57.9252 72.4439L62.2 75.65C63.2667 76.45 64.7333 76.45 65.8 75.65L70.0748 72.4439C71.1997 71.6003 72.7596 71.6511 73.8272 72.5661L77.0476 75.3265C78.1711 76.2895 79.8289 76.2895 80.9524 75.3265L84.1728 72.5661C85.2404 71.6511 86.8003 71.6003 87.9252 72.4439L92.8 76.1C93.5554 76.6666 94 77.5557 94 78.5V92C94 95.3137 91.3137 98 88 98H40C36.6863 98 34 95.3137 34 92V78.5Z" fill="#2563EB"/>
</g><animateTransform attributeName="transform" type="scale" values="1 1;1 1.08;1 1" dur="3s" begin="0s" repeatCount="indefinite" calcMode="spline" keySplines=".42 0 .58 1; .42 0 .58 1" additive="sum"/></g>
<path id="Shore_2" d="M49 98C49 83.0883 61.0883 71 76 71H88C91.3137 71 94 73.6863 94 77V92C94 95.3137 91.3137 98 88 98H49Z" fill="#EDC38B"/>
</g>
<g id="Wind">
<path id="Wind Line 1" d="M38.6489 41.8436C35.8997 38.9344 31 41.1021 31 44.977C31 47.4748 32.99 49.5 35.4444 49.5H67" stroke="#E2E8F0" stroke-width="3" stroke-miterlimit="10" stroke-linecap="round" stroke-dasharray="50"><animate attributeName="stroke-dashoffset" values="0;1000" dur="6s" begin="0s" repeatCount="indefinite"/></path>
<path id="Wind Line 1_2" d="M50.9431 63.1577C48.1466 66.008 43 64.0165 43 60.0238C43 57.5256 45.0665 55.5 47.6154 55.5C50.1642 55.5 67 55.5 67 55.5" stroke="#E2E8F0" stroke-width="3" stroke-miterlimit="10" stroke-linecap="round" stroke-dasharray="50"><animate attributeName="stroke-dashoffset" values="0;1000" dur="6s" begin="0.2s" repeatCount="indefinite"/></path>
</g>
</g>
<defs>
<clipPath id="clip0_2049_7106">
<rect width="128" height="128" fill="white"/>
</clipPath>
</defs>
</svg>