<svg viewBox="0 0 128 128" fill="none" xmlns="http://www.w3.org/2000/svg">
<g id="extreme-thunderstorms-fog" clip-path="url(#clip0_2045_40533)">
<g id="Sky">
<g id="Clouds">
<g id="Cloud">
<path id="Cloud_2" d="M90.3884 63.0856C92.6837 53.8819 87.7407 44.1357 79.0084 40.4822C70.2652 36.8242 59.8275 40.1375 54.837 48.2115C50.5362 45.625 44.9751 45.7781 40.8237 48.5991C36.6831 51.4128 34.4995 56.5143 35.3498 61.4539C28.3924 62.7685 23.3933 69.3393 24.0613 76.4076C24.7295 83.4776 30.8717 89.0018 37.9533 89C55.6065 89 73.3059 89 90.9766 89C98.0444 89 104 83.1189 104 76.0281C104 68.7015 97.6774 62.7674 90.3884 63.0856Z" fill="#F3F7FE"/>
</g>
<animateTransform attributeName="transform" type="translate" values="0 0;0 -3;0 0" dur="3s" begin="0s" repeatCount="indefinite" calcMode="spline" keySplines=".42 0 .58 1; .42 0 .58 1"/></g>
</g>
<g id="Precipitation">
<path id="Line 2" d="M40 95H88" stroke="#E2E8F0" stroke-width="3" stroke-miterlimit="10" stroke-linecap="round"><animateTransform attributeName="transform" type="translate" values="0 0;3 0;0 0" dur="3s" begin="0s" repeatCount="indefinite" calcMode="spline" keySplines=".42 0 .58 1; .42 0 .58 1"/></path>
<path id="Line 1" d="M40 103H88" stroke="#E2E8F0" stroke-width="3" stroke-miterlimit="10" stroke-linecap="round"><animateTransform attributeName="transform" type="translate" values="0 0;3 0;0 0" dur="3s" begin="0.2s" repeatCount="indefinite" calcMode="spline" keySplines=".42 0 .58 1; .42 0 .58 1"/></path>
</g>
<g id="Lightning">
<path id="Lightning Bolt" d="M54.0003 68L46 90.9092H54.0003L49.9995 110L70 83.2728H57.9996L65.9999 68H54.0003Z" fill="#F6A823"><animate attributeName="opacity" values="1;1;0;1;0;1;0;1;1" dur="2s" begin="0s" repeatCount="indefinite" keyTimes="0;0.25;0.33;0.42;0.5;0.57;0.63;0.67;1"/></path>
<path id="Lightning Bolt Small" d="M74.0002 68L70 79.4546H74.0002L71.9998 89L82 75.6364H75.9998L80 68H74.0002Z" fill="#F6A823"><animate attributeName="opacity" values="1;1;0;1;0;1;0;1;1" dur="2s" begin="0.5s" repeatCount="indefinite" keyTimes="0;0.25;0.33;0.42;0.5;0.57;0.63;0.67;1"/></path>
</g>
</g>
<defs>
<clipPath id="clip0_2045_40533">
<rect width="128" height="128" fill="white"/>
</clipPath>
</defs>
</svg>