<svg viewBox="0 0 128 128" fill="none" xmlns="http://www.w3.org/2000/svg">
<g id="wind-onshore" clip-path="url(#clip0_2049_6912)">
<g id="Shore">
<g id="Tree">
<path id="Branch" d="M78.9649 60.3853C78.5891 60.7146 78.1581 60.9824 77.6875 61.1729L79.75 64.7452L80.5 64.3121V63.0442L78.9649 60.3853Z" fill="#875B34"/>
<path id="Trunk" d="M84.5644 58.4196L83.7776 59.7824L83.7169 57.8533C83.3898 57.9099 83.0573 57.9506 82.7202 57.9746L82.7781 59.8138C82.7922 60.2604 83.1008 60.6434 83.5341 60.7522C83.6151 60.7726 83.6968 60.7824 83.7776 60.7824L83.0724 62.0038C82.9328 62.2457 82.8634 62.5218 82.8722 62.801L83.1261 70.8628C83.1272 70.8957 83.1298 70.9282 83.1339 70.9602C83.1285 70.9968 83.1191 71.0327 83.1057 71.0674C83.0816 71.13 83.0451 71.1871 82.9985 71.2353C82.9518 71.2835 82.8959 71.3218 82.8342 71.348C82.7724 71.3742 82.706 71.3876 82.6389 71.3876H81.0003C80.9332 71.3876 80.8668 71.3742 80.805 71.348C80.7432 71.3218 80.6873 71.2835 80.6407 71.2353C80.594 71.1871 80.5576 71.13 80.5334 71.0674C80.5093 71.0048 80.498 70.938 80.5003 70.8709L80.9075 57.9411C80.5704 57.9045 80.2383 57.8511 79.912 57.7818L79.5008 70.8376C79.4941 71.0388 79.528 71.2392 79.6003 71.427C79.6727 71.6148 79.7821 71.7861 79.9221 71.9307C80.0621 72.0754 80.2297 72.1903 80.415 72.2688C80.6003 72.3473 80.7996 72.3877 81.0008 72.3876H82.6383C82.8396 72.3877 83.0388 72.3473 83.2241 72.2688C83.4095 72.1903 83.5771 72.0754 83.7171 71.9307C83.7592 71.8872 83.7986 71.8412 83.8351 71.793L83.8355 71.7925C83.9198 71.681 83.9883 71.558 84.0388 71.427C84.0877 71.3003 84.119 71.1677 84.1321 71.0332C84.1382 70.9704 84.1404 70.9072 84.1385 70.8438C84.1384 70.8404 84.1356 70.8376 84.1321 70.8376C84.1286 70.8376 84.1257 70.8348 84.1256 70.8314L83.8717 62.7695C83.8688 62.6765 83.8919 62.5844 83.9385 62.5038L85.8925 59.1194C85.4184 58.9415 84.9728 58.7053 84.5644 58.4196Z" fill="#875B34"/>
<path id="Branch Canopy" d="M73.4945 53.2615C72.2916 54.0692 71.5 55.4422 71.5 57C71.5 59.4853 73.5147 61.5 76 61.5C78.1859 61.5 80.0077 59.9415 80.415 57.8751C79.9146 57.7954 79.4265 57.6786 78.9538 57.5275C78.7045 58.9328 77.4769 60 76 60C74.3431 60 73 58.6568 73 57C73 55.9402 73.5495 55.0088 74.3792 54.4751C74.0551 54.0941 73.7592 53.6885 73.4945 53.2615Z" fill="#16A34A"/>
<path id="Main Canopy" d="M82.7823 56.4645C82.5247 56.488 82.2637 56.5 82 56.5C77.3056 56.5 73.5 52.6944 73.5 48C73.5 43.3056 77.3056 39.5 82 39.5C86.6944 39.5 90.5 43.3056 90.5 48C90.5 48.0147 90.5 48.0293 90.4999 48.044C91.0301 48.2873 91.5186 48.6056 91.9521 48.9853C91.9838 48.6612 92 48.3325 92 48C92 42.4772 87.5228 38 82 38C76.4772 38 72 42.4772 72 48C72 53.5228 76.4772 58 82 58C82.6308 58 83.248 57.9416 83.8464 57.8299C83.4295 57.4298 83.0702 56.9701 82.7823 56.4645Z" fill="#16A34A"/>
<path id="Side Canopy" fill-rule="evenodd" clip-rule="evenodd" d="M88 58C90.4853 58 92.5 55.9853 92.5 53.5C92.5 51.0147 90.4853 49 88 49C85.5147 49 83.5 51.0147 83.5 53.5C83.5 55.9853 85.5147 58 88 58ZM88 59.5C91.3137 59.5 94 56.8137 94 53.5C94 50.1863 91.3137 47.5 88 47.5C84.6863 47.5 82 50.1863 82 53.5C82 56.8137 84.6863 59.5 88 59.5Z" fill="#16A34A"/>
</g>
<g id="Mask group">
<mask id="mask0_2049_6912" style="mask-type:alpha" maskUnits="userSpaceOnUse" x="34" y="71" width="27" height="27">
<path id="Mask" d="M60.7574 71H34V98H45C45 86.4197 51.3497 76.3225 60.7574 71Z" fill="black"/>
</mask>
<g mask="url(#mask0_2049_6912)">
<g transform="translate(64.0,96.5)"><g id="Water" transform="translate(-64.0,-96.5)">
<path id="Water_2" d="M85.1494 73.7051C85.6832 73.2477 86.463 73.2218 87.0254 73.6436L91.9004 77.2998C92.278 77.5831 92.5 78.0279 92.5 78.5V92C92.5 94.4853 90.4853 96.5 88 96.5H40C37.5147 96.5 35.5 94.4853 35.5 92V78.5C35.5 78.0279 35.722 77.5831 36.0996 77.2998L40.9746 73.6436C41.537 73.2218 42.3168 73.2477 42.8506 73.7051L46.0713 76.4658C47.7565 77.9102 50.2435 77.9102 51.9287 76.4658L55.1494 73.7051C55.6832 73.2477 56.463 73.2218 57.0254 73.6436L61.2998 76.8496C62.8998 78.0496 65.1002 78.0496 66.7002 76.8496L70.9746 73.6436C71.537 73.2218 72.3168 73.2477 72.8506 73.7051L76.0713 76.4658C77.7565 77.9102 80.2435 77.9102 81.9287 76.4658L85.1494 73.7051Z" stroke="#1D4ED8" stroke-width="3" stroke-miterlimit="10"/>
</g><animateTransform attributeName="transform" type="scale" values="1 1;1 1.08;1 1" dur="3s" begin="0s" repeatCount="indefinite" calcMode="spline" keySplines=".42 0 .58 1; .42 0 .58 1" additive="sum"/></g>
</g>
</g>
<path id="Shore_2" d="M76 72.5H88C90.4853 72.5 92.5 74.5147 92.5 77V92C92.5 94.4853 90.4853 96.5 88 96.5H50.5449C51.3088 83.3319 62.0633 72.8452 75.3418 72.5088L76 72.5Z" stroke="#EDC38B" stroke-width="3"/>
</g>
<g id="Wind">
<path id="Wind Line 1" d="M59.3511 41.8436C62.1003 38.9344 67 41.1021 67 44.977C67 47.4748 65.01 49.5 62.5556 49.5H31" stroke="#E2E8F0" stroke-width="3" stroke-miterlimit="10" stroke-linecap="round" stroke-dasharray="50"><animate attributeName="stroke-dashoffset" values="0;1000" dur="6s" begin="0s" repeatCount="indefinite"/></path>
<path id="Wind Line 1_2" d="M47.0569 63.1577C49.8534 66.008 55 64.0165 55 60.0238C55 57.5256 52.9335 55.5 50.3846 55.5C47.8358 55.5 31 55.5 31 55.5" stroke="#E2E8F0" stroke-width="3" stroke-miterlimit="10" stroke-linecap="round" stroke-dasharray="50"><animate attributeName="stroke-dashoffset" values="0;1000" dur="6s" begin="0.2s" repeatCount="indefinite"/></path>
</g>
</g>
<defs>
<clipPath id="clip0_2049_6912">
<rect width="128" height="128" fill="white"/>
</clipPath>
</defs>
</svg>