<svg viewBox="0 0 128 128" fill="none" xmlns="http://www.w3.org/2000/svg">
<g id="pollen-tree" clip-path="url(#clip0_2045_37886)">
<g id="Tree">
<path id="Branch" d="M57.9297 78.7705C57.1783 79.4292 56.3162 79.9647 55.3751 80.3457L59.5 87.4903L61 86.6243V84.0884L57.9297 78.7705Z" fill="#875B34"/>
<path id="Trunk" d="M69.1288 74.8394L67.5553 77.5648L67.4338 73.7067C66.7796 73.8199 66.1146 73.9013 65.4404 73.9493L65.5563 77.6278C65.5844 78.5209 66.2015 79.287 67.0681 79.5046C67.2302 79.5453 67.3936 79.565 67.5552 79.565L66.1449 82.0077C65.8655 82.4916 65.7268 83.0438 65.7444 83.6022L66.2523 99.7258C66.2543 99.7915 66.2595 99.8565 66.2677 99.9205C66.257 99.9937 66.2382 100.066 66.2114 100.135C66.1632 100.26 66.0902 100.374 65.9969 100.471C65.9036 100.567 65.7919 100.644 65.6683 100.696C65.5448 100.748 65.4119 100.775 65.2778 100.775H62.0006C61.8664 100.775 61.7336 100.748 61.61 100.696C61.4865 100.644 61.3747 100.567 61.2814 100.471C61.1881 100.374 61.1151 100.26 61.0669 100.135C61.0186 100.01 60.9961 99.8761 61.0006 99.742L61.815 73.8824C61.1408 73.8091 60.4765 73.7023 59.8241 73.5637L59.0017 99.6753C58.9882 100.078 59.0559 100.479 59.2007 100.854C59.3454 101.23 59.5643 101.572 59.8442 101.862C60.1241 102.151 60.4594 102.381 60.83 102.538C61.2007 102.695 61.5991 102.776 62.0017 102.775H65.2767C65.6792 102.776 66.0776 102.695 66.4483 102.538C66.8189 102.381 67.1542 102.151 67.4341 101.862C67.5185 101.774 67.5973 101.682 67.6702 101.586L67.671 101.585C67.8397 101.362 67.9767 101.116 68.0777 100.854C68.1754 100.601 68.2379 100.336 68.2642 100.066C68.2764 99.9409 68.2808 99.8144 68.2771 99.6878C68.2769 99.6809 68.2711 99.6753 68.2642 99.6753C68.2572 99.6753 68.2515 99.6698 68.2513 99.6628L67.7434 83.5392C67.7376 83.3531 67.7838 83.169 67.8769 83.0077L71.7849 76.2389C70.8367 75.8831 69.9456 75.4108 69.1288 74.8394Z" fill="#875B34"/>
<path id="Branch Canopy" d="M46.9889 64.5229C44.5832 66.1385 43 68.8843 43 72C43 76.9705 47.0294 81 52 81C56.3717 81 60.0154 77.883 60.8299 73.7501C59.8291 73.5907 58.853 73.3571 57.9075 73.0551C57.409 75.8656 54.9537 78 52 78C48.6863 78 46 75.3137 46 72C46 69.8804 47.099 68.0175 48.7584 66.9502C48.1103 66.1882 47.5183 65.377 46.9889 64.5229Z" fill="#16A34A"/>
<path id="Main Canopy" d="M65.5646 70.929C65.0494 70.976 64.5275 71 64 71C54.6112 71 47 63.3888 47 54C47 44.6112 54.6112 37 64 37C73.3888 37 81 44.6112 81 54C81 54.0293 80.9999 54.0587 80.9998 54.088C82.0601 54.5746 83.0373 55.2112 83.9041 55.9707C83.9675 55.3224 84 54.665 84 54C84 42.9543 75.0457 34 64 34C52.9543 34 44 42.9543 44 54C44 65.0457 52.9543 74 64 74C65.2616 74 66.496 73.8832 67.6928 73.6598C66.859 72.8596 66.1404 71.9402 65.5646 70.929Z" fill="#16A34A"/>
<path id="Side Canopy" fill-rule="evenodd" clip-rule="evenodd" d="M76 74C80.9706 74 85 69.9706 85 65C85 60.0294 80.9706 56 76 56C71.0294 56 67 60.0294 67 65C67 69.9706 71.0294 74 76 74ZM76 77C82.6274 77 88 71.6274 88 65C88 58.3726 82.6274 53 76 53C69.3726 53 64 58.3726 64 65C64 71.6274 69.3726 77 76 77Z" fill="#16A34A"/>
</g>
<g id="Pollen">
<path id="Pollen 7" d="M90 53C91.6569 53 93 51.6569 93 50C93 48.3431 91.6569 47 90 47C88.3431 47 87 48.3431 87 50C87 51.6569 88.3431 53 90 53Z" fill="#FACC15"><animateTransform attributeName="transform" type="translate" values="0 0;8 -4" dur="3s" begin="0s" repeatCount="indefinite" calcMode="spline" keySplines=".42 0 .58 1"/><animate attributeName="opacity" values="0;1;1;0" dur="3s" begin="0s" repeatCount="indefinite" keyTimes="0;0.2;0.8;1"/></path>
<path id="Pollen 6" d="M80 42C81.1046 42 82 41.1046 82 40C82 38.8954 81.1046 38 80 38C78.8954 38 78 38.8954 78 40C78 41.1046 78.8954 42 80 42Z" fill="#FACC15" opacity="0"><animateTransform attributeName="transform" type="translate" values="0 0;8 -4" dur="3s" begin="0.35s" repeatCount="indefinite" calcMode="spline" keySplines=".42 0 .58 1"/><animate attributeName="opacity" values="0;1;1;0" dur="3s" begin="0.35s" repeatCount="indefinite" keyTimes="0;0.2;0.8;1"/></path>
<path id="Pollen 5" d="M74 52C76.2091 52 78 50.2091 78 48C78 45.7909 76.2091 44 74 44C71.7909 44 70 45.7909 70 48C70 50.2091 71.7909 52 74 52Z" fill="#FACC15" opacity="0"><animateTransform attributeName="transform" type="translate" values="0 0;8 -4" dur="3s" begin="0.7s" repeatCount="indefinite" calcMode="spline" keySplines=".42 0 .58 1"/><animate attributeName="opacity" values="0;1;1;0" dur="3s" begin="0.7s" repeatCount="indefinite" keyTimes="0;0.2;0.8;1"/></path>
<path id="Pollen 4" d="M64 41C65.6569 41 67 39.6569 67 38C67 36.3431 65.6569 35 64 35C62.3431 35 61 36.3431 61 38C61 39.6569 62.3431 41 64 41Z" fill="#FACC15" opacity="0"><animateTransform attributeName="transform" type="translate" values="0 0;8 -4" dur="3s" begin="1.0499999999999998s" repeatCount="indefinite" calcMode="spline" keySplines=".42 0 .58 1"/><animate attributeName="opacity" values="0;1;1;0" dur="3s" begin="1.0499999999999998s" repeatCount="indefinite" keyTimes="0;0.2;0.8;1"/></path>
<path id="Pollen 3" d="M54 52C56.2091 52 58 50.2091 58 48C58 45.7909 56.2091 44 54 44C51.7909 44 50 45.7909 50 48C50 50.2091 51.7909 52 54 52Z" fill="#FACC15" opacity="0"><animateTransform attributeName="transform" type="translate" values="0 0;8 -4" dur="3s" begin="1.4s" repeatCount="indefinite" calcMode="spline" keySplines=".42 0 .58 1"/><animate attributeName="opacity" values="0;1;1;0" dur="3s" begin="1.4s" repeatCount="indefinite" keyTimes="0;0.2;0.8;1"/></path>
<path id="Pollen 2" d="M48 42C49.1046 42 50 41.1046 50 40C50 38.8954 49.1046 38 48 38C46.8954 38 46 38.8954 46 40C46 41.1046 46.8954 42 48 42Z" fill="#FACC15" opacity="0"><animateTransform attributeName="transform" type="translate" values="0 0;8 -4" dur="3s" begin="1.75s" repeatCount="indefinite" calcMode="spline" keySplines=".42 0 .58 1"/><animate attributeName="opacity" values="0;1;1;0" dur="3s" begin="1.75s" repeatCount="indefinite" keyTimes="0;0.2;0.8;1"/></path>
<path id="Pollen 1" d="M38 53C39.6569 53 41 51.6569 41 50C41 48.3431 39.6569 47 38 47C36.3431 47 35 48.3431 35 50C35 51.6569 36.3431 53 38 53Z" fill="#FACC15" opacity="0"><animateTransform attributeName="transform" type="translate" values="0 0;8 -4" dur="3s" begin="2.0999999999999996s" repeatCount="indefinite" calcMode="spline" keySplines=".42 0 .58 1"/><animate attributeName="opacity" values="0;1;1;0" dur="3s" begin="2.0999999999999996s" repeatCount="indefinite" keyTimes="0;0.2;0.8;1"/></path>
</g>
</g>
<defs>
<clipPath id="clip0_2045_37886">
<rect width="128" height="128" fill="white"/>
</clipPath>
</defs>
</svg>