<svg viewBox="0 0 128 128" fill="none" xmlns="http://www.w3.org/2000/svg">
<g id="pollen-tree" clip-path="url(#clip0_2038_25674)">
<g id="Tree">
<path id="Branch" d="M57.9297 78.7705C57.1783 79.4292 56.3162 79.9647 55.3751 80.3457L59.5 87.4903L62.0981 85.9903L57.9297 78.7705Z" fill="black"/>
<path id="Trunk" d="M69.7442 75.2424C69.4178 75.3305 69.0884 75.4112 68.7562 75.4844L67.5553 77.5644L67.4973 75.7234C66.3583 75.9054 65.1902 75.9999 64 75.9999C62.5497 75.9999 61.1321 75.8596 59.7602 75.5917L59.0017 99.6749C58.9882 100.077 59.0559 100.478 59.2007 100.854C59.3454 101.229 59.5643 101.572 59.8442 101.861C60.1241 102.15 60.4594 102.38 60.83 102.537C61.2007 102.694 61.5991 102.775 62.0017 102.775H65.2767C65.6792 102.775 66.0776 102.694 66.4483 102.537C66.8189 102.38 67.1542 102.15 67.4341 101.861C67.7141 101.572 67.9329 101.229 68.0777 100.854C68.2209 100.482 68.2887 100.085 68.2771 99.6874C68.2769 99.6804 68.2711 99.6749 68.2642 99.6749C68.2572 99.6749 68.2515 99.6694 68.2513 99.6624L67.7434 83.5388C67.7376 83.3526 67.7838 83.1686 67.8769 83.0073L71.7847 76.2388C71.0696 75.9705 70.387 75.6359 69.7442 75.2424Z" fill="black"/>
<path id="Branch Canopy" d="M57.6879 76.0812C53.0475 74.6937 49.0505 71.816 46.2524 68.0034C45.4629 69.1366 45 70.5143 45 72.0001C45 75.8661 48.134 79.0001 52 79.0001C54.3431 79.0001 56.4173 77.8489 57.6879 76.0812Z" fill="black"/>
<path id="Main Canopy" d="M83.9738 56.0322C83.9912 55.6903 84 55.3462 84 55C84 43.9543 75.0457 35 64 35C52.9543 35 44 43.9543 44 55C44 66.0457 52.9543 75 64 75C65.5904 75 67.1375 74.8144 68.6207 74.4636C65.8083 72.2674 64 68.8449 64 65C64 58.3726 69.3726 53 76 53C79.0608 53 81.854 54.146 83.9738 56.0322Z" fill="black"/>
<circle id="Side Canopy" cx="76" cy="65" r="10" fill="black"/>
</g>
<g id="Pollen">
<path id="Pollen 7" d="M90 53C91.6569 53 93 51.6569 93 50C93 48.3431 91.6569 47 90 47C88.3431 47 87 48.3431 87 50C87 51.6569 88.3431 53 90 53Z" fill="black"><animateTransform attributeName="transform" type="translate" values="0 0;8 -4" dur="3s" begin="0s" repeatCount="indefinite" calcMode="spline" keySplines=".42 0 .58 1"/><animate attributeName="opacity" values="0;1;1;0" dur="3s" begin="0s" repeatCount="indefinite" keyTimes="0;0.2;0.8;1"/></path>
<path id="Pollen 6" d="M80 42C81.1046 42 82 41.1046 82 40C82 38.8954 81.1046 38 80 38C78.8954 38 78 38.8954 78 40C78 41.1046 78.8954 42 80 42Z" fill="black" opacity="0"><animateTransform attributeName="transform" type="translate" values="0 0;8 -4" dur="3s" begin="0.35s" repeatCount="indefinite" calcMode="spline" keySplines=".42 0 .58 1"/><animate attributeName="opacity" values="0;1;1;0" dur="3s" begin="0.35s" repeatCount="indefinite" keyTimes="0;0.2;0.8;1"/></path>
<path id="Pollen 5" d="M74 52C76.2091 52 78 50.2091 78 48C78 45.7909 76.2091 44 74 44C71.7909 44 70 45.7909 70 48C70 50.2091 71.7909 52 74 52Z" fill="black" opacity="0"><animateTransform attributeName="transform" type="translate" values="0 0;8 -4" dur="3s" begin="0.7s" repeatCount="indefinite" calcMode="spline" keySplines=".42 0 .58 1"/><animate attributeName="opacity" values="0;1;1;0" dur="3s" begin="0.7s" repeatCount="indefinite" keyTimes="0;0.2;0.8;1"/></path>
<path id="Pollen 4" d="M64 41C65.6569 41 67 39.6569 67 38C67 36.3431 65.6569 35 64 35C62.3431 35 61 36.3431 61 38C61 39.6569 62.3431 41 64 41Z" fill="black" opacity="0"><animateTransform attributeName="transform" type="translate" values="0 0;8 -4" dur="3s" begin="1.0499999999999998s" repeatCount="indefinite" calcMode="spline" keySplines=".42 0 .58 1"/><animate attributeName="opacity" values="0;1;1;0" dur="3s" begin="1.0499999999999998s" repeatCount="indefinite" keyTimes="0;0.2;0.8;1"/></path>
<path id="Pollen 3" d="M54 52C56.2091 52 58 50.2091 58 48C58 45.7909 56.2091 44 54 44C51.7909 44 50 45.7909 50 48C50 50.2091 51.7909 52 54 52Z" fill="black" opacity="0"><animateTransform attributeName="transform" type="translate" values="0 0;8 -4" dur="3s" begin="1.4s" repeatCount="indefinite" calcMode="spline" keySplines=".42 0 .58 1"/><animate attributeName="opacity" values="0;1;1;0" dur="3s" begin="1.4s" repeatCount="indefinite" keyTimes="0;0.2;0.8;1"/></path>
<path id="Pollen 2" d="M48 42C49.1046 42 50 41.1046 50 40C50 38.8954 49.1046 38 48 38C46.8954 38 46 38.8954 46 40C46 41.1046 46.8954 42 48 42Z" fill="black" opacity="0"><animateTransform attributeName="transform" type="translate" values="0 0;8 -4" dur="3s" begin="1.75s" repeatCount="indefinite" calcMode="spline" keySplines=".42 0 .58 1"/><animate attributeName="opacity" values="0;1;1;0" dur="3s" begin="1.75s" repeatCount="indefinite" keyTimes="0;0.2;0.8;1"/></path>
<path id="Pollen 1" d="M38 53C39.6569 53 41 51.6569 41 50C41 48.3431 39.6569 47 38 47C36.3431 47 35 48.3431 35 50C35 51.6569 36.3431 53 38 53Z" fill="black" opacity="0"><animateTransform attributeName="transform" type="translate" values="0 0;8 -4" dur="3s" begin="2.0999999999999996s" repeatCount="indefinite" calcMode="spline" keySplines=".42 0 .58 1"/><animate attributeName="opacity" values="0;1;1;0" dur="3s" begin="2.0999999999999996s" repeatCount="indefinite" keyTimes="0;0.2;0.8;1"/></path>
</g>
</g>
<defs>
<clipPath id="clip0_2038_25674">
<rect width="128" height="128" fill="white"/>
</clipPath>
</defs>
</svg>