<svg viewBox="0 0 128 128" fill="none" xmlns="http://www.w3.org/2000/svg">
<g id="wind-onshore" clip-path="url(#clip0_2049_7153)">
<g id="Shore">
<g id="Tree">
<path id="Branch" d="M78.9649 60.3853C78.5891 60.7146 78.1581 60.9824 77.6875 61.1729L79.75 64.7452L81.049 63.9952L78.9649 60.3853Z" fill="black"/>
<path id="Trunk" d="M84.8721 58.6212C84.7089 58.6652 84.5442 58.7056 84.3781 58.7422L83.7776 59.7822L83.7486 58.8617C83.1792 58.9527 82.5951 58.9999 82 58.9999C81.2748 58.9999 80.5661 58.9298 79.8801 58.7959L79.5008 70.8374C79.4941 71.0386 79.528 71.239 79.6003 71.4268C79.6727 71.6146 79.7821 71.786 79.9221 71.9306C80.0621 72.0752 80.2297 72.1902 80.415 72.2687C80.6003 72.3472 80.7996 72.3876 81.0008 72.3874H82.6383C82.8396 72.3876 83.0388 72.3472 83.2241 72.2687C83.4095 72.1902 83.5771 72.0752 83.7171 71.9306C83.857 71.786 83.9665 71.6146 84.0388 71.4268C84.1105 71.241 84.1443 71.0427 84.1385 70.8437C84.1384 70.8402 84.1356 70.8374 84.1321 70.8374C84.1286 70.8374 84.1257 70.8347 84.1256 70.8312L83.8717 62.7694C83.8688 62.6763 83.8919 62.5843 83.9385 62.5036L85.8924 59.1194C85.5348 58.9852 85.1935 58.8179 84.8721 58.6212Z" fill="black"/>
<path id="Branch Canopy" d="M78.8439 59.0405C76.5238 58.3468 74.5252 56.9079 73.1262 55.0016C72.7315 55.5682 72.5 56.2571 72.5 57C72.5 58.933 74.067 60.5 76 60.5C77.1716 60.5 78.2087 59.9244 78.8439 59.0405Z" fill="black"/>
<path id="Main Canopy" d="M91.9869 49.0161C91.9956 48.8452 92 48.6731 92 48.5C92 42.9772 87.5228 38.5 82 38.5C76.4772 38.5 72 42.9772 72 48.5C72 54.0228 76.4772 58.5 82 58.5C82.7952 58.5 83.5687 58.4072 84.3104 58.2318C82.9041 57.1337 82 55.4224 82 53.5C82 50.1863 84.6863 47.5 88 47.5C89.5304 47.5 90.927 48.073 91.9869 49.0161Z" fill="black"/>
<circle id="Side Canopy" cx="88" cy="53.5" r="5" fill="black"/>
</g>
<g id="Mask group">
<mask id="mask0_2049_7153" style="mask-type:alpha" maskUnits="userSpaceOnUse" x="34" y="71" width="27" height="27">
<path id="Mask" d="M60.7574 71H34V98H45C45 86.4197 51.3497 76.3225 60.7574 71Z" fill="black"/>
</mask>
<g mask="url(#mask0_2049_7153)">
<g transform="translate(64.0,98.0)"><g id="Water" transform="translate(-64.0,-98.0)">
<path id="Water_2" d="M34 78.5C34 77.5557 34.4446 76.6666 35.2 76.1L40.0748 72.4439C41.1997 71.6003 42.7596 71.6511 43.8272 72.5661L47.0476 75.3265C48.1711 76.2895 49.8289 76.2895 50.9524 75.3265L54.1728 72.5661C55.2404 71.6511 56.8003 71.6003 57.9252 72.4439L62.2 75.65C63.2667 76.45 64.7333 76.45 65.8 75.65L70.0748 72.4439C71.1997 71.6003 72.7596 71.6511 73.8272 72.5661L77.0476 75.3265C78.1711 76.2895 79.8289 76.2895 80.9524 75.3265L84.1728 72.5661C85.2404 71.6511 86.8003 71.6003 87.9252 72.4439L92.8 76.1C93.5554 76.6666 94 77.5557 94 78.5V92C94 95.3137 91.3137 98 88 98H40C36.6863 98 34 95.3137 34 92V78.5Z" fill="black"/>
</g><animateTransform attributeName="transform" type="scale" values="1 1;1 1.08;1 1" dur="3s" begin="0s" repeatCount="indefinite" calcMode="spline" keySplines=".42 0 .58 1; .42 0 .58 1" additive="sum"/></g>
</g>
</g>
<path id="Shore_2" d="M49 98C49 83.0883 61.0883 71 76 71H88C91.3137 71 94 73.6863 94 77V92C94 95.3137 91.3137 98 88 98H49Z" fill="black"/>
</g>
<g id="Wind">
<path id="Wind Line 1" d="M59.3511 41.8436C62.1003 38.9344 67 41.1021 67 44.977C67 47.4748 65.01 49.5 62.5556 49.5H31" stroke="black" stroke-width="3" stroke-miterlimit="10" stroke-linecap="round" stroke-dasharray="50"><animate attributeName="stroke-dashoffset" values="0;1000" dur="6s" begin="0s" repeatCount="indefinite"/></path>
<path id="Wind Line 1_2" d="M47.0569 63.1577C49.8534 66.008 55 64.0165 55 60.0238C55 57.5256 52.9335 55.5 50.3846 55.5C47.8358 55.5 31 55.5 31 55.5" stroke="black" stroke-width="3" stroke-miterlimit="10" stroke-linecap="round" stroke-dasharray="50"><animate attributeName="stroke-dashoffset" values="0;1000" dur="6s" begin="0.2s" repeatCount="indefinite"/></path>
</g>
</g>
<defs>
<clipPath id="clip0_2049_7153">
<rect width="128" height="128" fill="white"/>
</clipPath>
</defs>
</svg>